# xmcd
#
# Track frame offsets:
#	300
#	17047
#	28900
#	42502
#	54105
#	71495
#	84897
#	97227
#	115077
#	128430
#	140887
#	158495
#	167167
#	179607
#
# Disc length: 2577 seconds
#
# Revision: 3
# Processed by: cddbd v1.5.2PL0 Copyright (c) Steve Scherf et al.
# Submitted via: audiograbber 1.83.01
#
DISCID=ba0a0d0e
DTITLE=Tucny Michal - Country Minstrels
DYEAR=1993
DGENRE=
TTITLE0=The Last Cowboy
TTITLE1=Texas On A Saturday Night
TTITLE2=You Win Again
TTITLE3=Ha-Ha Ja-Ja
TTITLE4=Tam u nebeskych bran
TTITLE5=Milujeme Prahu
TTITLE6=Ten pansky koci
TTITLE7=Gotta Slow Down
TTITLE8=Bellow The Border
TTITLE9=San Antonio Rose
TTITLE10=Feelin´ Lousy, Hit The Road
TTITLE11=Country Pickin´
TTITLE12=Sweet Dreams
TTITLE13=Az prijde ten den
EXTD=
EXTT0=
EXTT1=
EXTT2=
EXTT3=
EXTT4=
EXTT5=
EXTT6=
EXTT7=
EXTT8=
EXTT9=
EXTT10=
EXTT11=
EXTT12=
EXTT13=
PLAYORDER=
